<svg width="27" height="27" viewBox="0 0 27 27" fill="none" xmlns="http://www.w3.org/2000/svg"><path fill="none" d="M1 1h25v25H1z"/><path d="M13.5 26C20.404 26 26 20.404 26 13.5S20.404 1 13.5 1 1 6.596 1 13.5 6.596 26 13.5 26z" stroke="#26292E" stroke-width="1.5" stroke-miterlimit="10" stroke-linecap="round" stroke-linejoin="round"/><path d="M8.092 9.545v5.373c0 .617.185 1.115.556 1.494.375.375.893.563 1.553.563.66 0 1.178-.188 1.553-.563.375-.379.562-.877.562-1.494V9.545h1.307v5.484c0 .926-.308 1.676-.926 2.25-.617.575-1.449.862-2.496.862s-1.879-.287-2.496-.862c-.617-.574-.926-1.324-.926-2.25V9.545h1.313zM20.619 18l-.773-2.285h-3.223L15.85 18h-1.366l3.053-8.455h1.418L22.008 18h-1.389zm-2.402-7.049l-1.26 3.71h2.555l-1.26-3.71h-.035z" fill="#26292E"/></svg>