<svg width="27" height="27" viewBox="0 0 27 27" fill="none" xmlns="http://www.w3.org/2000/svg"><path fill="none" d="M0 0h27v27H0z"/><path fill="none" d="M6 6h15v15H6z"/><path d="M15.115 17.776c-1.589 0-3.047-.623-4.167-1.715a5.835 5.835 0 0 1-1.719-4.16c0-1.586.625-3.041 1.719-4.16A5.88 5.88 0 0 1 15.115 6c1.562 0 3.046.624 4.166 1.716a5.835 5.835 0 0 1 1.72 4.16c0 1.559-.626 3.04-1.72 4.159-1.093 1.143-2.578 1.741-4.166 1.741zm0-10.814a4.89 4.89 0 0 0-3.49 1.456 4.828 4.828 0 0 0-1.458 3.483c0 1.326.52 2.548 1.458 3.484a4.89 4.89 0 0 0 3.49 1.456 4.89 4.89 0 0 0 3.49-1.456 4.917 4.917 0 0 0 1.458-3.484c0-1.326-.521-2.547-1.459-3.483a4.845 4.845 0 0 0-3.49-1.456z" fill="#26292E"/><path d="M18.422 12.369a.466.466 0 0 1-.469-.468 2.815 2.815 0 0 0-2.812-2.808 2.815 2.815 0 0 0-2.813 2.808c0 .26-.208.468-.469.468a.466.466 0 0 1-.468-.468c0-2.08 1.692-3.77 3.776-3.77a3.775 3.775 0 0 1 3.776 3.77.532.532 0 0 1-.521.468zM7.849 21c-.469 0-.938-.182-1.276-.52l-.052-.052A1.81 1.81 0 0 1 6 19.154c0-.468.182-.936.52-1.273l2.475-2.47a.488.488 0 0 1 .677 0 .486.486 0 0 1 0 .676l-2.474 2.47a.846.846 0 0 0-.26.597c0 .234.078.442.26.598l.052.026c.339.338.885.338 1.198 0l2.474-2.47a.488.488 0 0 1 .677 0 .486.486 0 0 1 0 .677L9.125 20.48c-.339.338-.807.52-1.276.52z" fill="#26292E"/><path d="M13.5 26C20.404 26 26 20.404 26 13.5S20.404 1 13.5 1C6.598 1 1 6.596 1 13.5S6.597 26 13.5 26z" stroke="#26292E" stroke-width="1.5" stroke-miterlimit="10" stroke-linecap="round" stroke-linejoin="round"/></svg>